<svg xmlns="http://www.w3.org/2000/svg" width="643" height="638" fill="none"><g filter="url(#a)"><path fill="url(#b)" fill-rule="evenodd" d="M320.86 227.74c17.07 1.71 36.08-6.46 50.5 2.8 14.43 9.26 16.36 29.14 23.49 44.7 6.45 14.11 12.65 27.64 16.51 42.67 4.92 19.12 21.46 42 9.22 57.5-13.04 16.5-42.06.51-61.48 8.65-15.83 6.64-21.83 28.1-38.24 33.15-17.82 5.48-37.45 2.31-54.78-4.55-18.72-7.42-41.98-16.5-47.3-35.9-5.6-20.47 20.66-37.64 21.35-58.85.66-20.12-22.37-37.14-17.6-56.7 4.73-19.32 22.73-35.03 41.59-41.45 18.39-6.26 37.4 6.03 56.74 7.98Z" clip-rule="evenodd"/></g><defs><linearGradient id="b" x1="125.37" x2="317.74" y1="320.04" y2="517.17" gradientUnits="userSpaceOnUse"><stop stop-color="#E5E54B"/><stop offset="1" stop-color="#EF5322"/></linearGradient><filter id="a" width="643" height="638" x="0" y="0" color-interpolation-filters="sRGB" filterUnits="userSpaceOnUse"><feFlood flood-opacity="0" result="BackgroundImageFix"/><feBlend in="SourceGraphic" in2="BackgroundImageFix" result="shape"/><feGaussianBlur result="effect1_foregroundBlur_714_702" stdDeviation="109"/></filter></defs></svg>