<svg xmlns="http://www.w3.org/2000/svg" width="20" height="20" fill="none"><path fill="currentColor" d="M15.95 10.78a5.9 5.9 0 0 0 0-1.56l1.68-1.32a.4.4 0 0 0 .1-.5l-1.6-2.78a.4.4 0 0 0-.49-.18l-1.99.8a5.89 5.89 0 0 0-1.35-.78L12 2.34a.4.4 0 0 0-.4-.34H8.4a.4.4 0 0 0-.4.34l-.3 2.12c-.48.2-.93.47-1.34.78l-2-.8a.4.4 0 0 0-.49.18L2.28 7.4c-.1.18-.06.4.1.51l1.7 1.32a4.89 4.89 0 0 0-.02 1.56l-1.7 1.32a.4.4 0 0 0-.1.5l1.6 2.78c.1.18.31.24.5.18l1.99-.8c.42.31.86.58 1.35.78l.3 2.12c.04.2.2.34.4.34h3.2c.2 0 .37-.14.4-.34l.3-2.12c.48-.2.93-.46 1.34-.78l2 .8c.18.06.38 0 .48-.19l1.6-2.76c.1-.18.06-.4-.1-.51l-1.67-1.32ZM10 13a3 3 0 0 1-3-3 3 3 0 0 1 3-3 3 3 0 0 1 3 3 3 3 0 0 1-3 3Z"/></svg>
